<svg width="47" height="47" viewBox="0 0 47 47" fill="none" xmlns="http://www.w3.org/2000/svg">
<circle cx="23.5" cy="23.5" r="23.5" fill="#2196F3"/>
<path d="M16.311 25.2275H14.1772V31H10.2354V14.6484H16.6704C18.6095 14.6484 20.1257 15.0789 21.2188 15.9399C22.3118 16.8009 22.8584 18.0176 22.8584 19.5898C22.8584 20.7279 22.6263 21.6712 22.1621 22.4199C21.7054 23.1686 20.9867 23.7751 20.0059 24.2393L23.4199 30.8315V31H19.1973L16.311 25.2275ZM14.1772 22.1841H16.6704C17.4191 22.1841 17.9806 21.9894 18.355 21.6001C18.7368 21.2033 18.9277 20.653 18.9277 19.9492C18.9277 19.2454 18.7368 18.6951 18.355 18.2983C17.9731 17.894 17.4116 17.6919 16.6704 17.6919H14.1772V22.1841ZM29.9448 26.4741L28.8779 27.541V31H25.0933V13.7388H28.8779V22.9028L29.2598 22.3975L32.1123 18.8486H36.6494L32.3931 23.8462L36.9302 31H32.5952L29.9448 26.4741Z" fill="white"/>
</svg>
