<svg width="165" height="47" viewBox="0 0 165 47" fill="none" xmlns="http://www.w3.org/2000/svg">
<circle cx="23.5" cy="23.5" r="23.5" fill="#2196F3"/>
<path d="M16.311 25.2275H14.1772V31H10.2354V14.6484H16.6704C18.6095 14.6484 20.1257 15.0789 21.2188 15.9399C22.3118 16.8009 22.8584 18.0176 22.8584 19.5898C22.8584 20.7279 22.6263 21.6712 22.1621 22.4199C21.7054 23.1686 20.9867 23.7751 20.0059 24.2393L23.4199 30.8315V31H19.1973L16.311 25.2275ZM14.1772 22.1841H16.6704C17.4191 22.1841 17.9806 21.9894 18.355 21.6001C18.7368 21.2033 18.9277 20.653 18.9277 19.9492C18.9277 19.2454 18.7368 18.6951 18.355 18.2983C17.9731 17.894 17.4116 17.6919 16.6704 17.6919H14.1772V22.1841ZM29.9448 26.4741L28.8779 27.541V31H25.0933V13.7388H28.8779V22.9028L29.2598 22.3975L32.1123 18.8486H36.6494L32.3931 23.8462L36.9302 31H32.5952L29.9448 26.4741Z" fill="white"/>
<path d="M59.6289 25.9766H57.4023V32H53.2891V14.9375H60.0039C62.0273 14.9375 63.6094 15.3867 64.75 16.2852C65.8906 17.1836 66.4609 18.4531 66.4609 20.0938C66.4609 21.2812 66.2188 22.2656 65.7344 23.0469C65.2578 23.8281 64.5078 24.4609 63.4844 24.9453L67.0469 31.8242V32H62.6406L59.6289 25.9766ZM57.4023 22.8008H60.0039C60.7852 22.8008 61.3711 22.5977 61.7617 22.1914C62.1602 21.7773 62.3594 21.2031 62.3594 20.4688C62.3594 19.7344 62.1602 19.1602 61.7617 18.7461C61.3633 18.3242 60.7773 18.1133 60.0039 18.1133H57.4023V22.8008ZM76.3164 30.6289C75.4805 31.6992 74.3516 32.2344 72.9297 32.2344C71.5391 32.2344 70.4844 31.832 69.7656 31.0273C69.0547 30.2148 68.6992 29.0508 68.6992 27.5352V19.3203H72.6484V27.5586C72.6484 28.6445 73.1758 29.1875 74.2305 29.1875C75.1367 29.1875 75.7812 28.8633 76.1641 28.2148V19.3203H80.1367V32H76.4336L76.3164 30.6289ZM89.4531 32C89.3125 31.7422 89.1875 31.3633 89.0781 30.8633C88.3516 31.7773 87.3359 32.2344 86.0312 32.2344C84.8359 32.2344 83.8203 31.875 82.9844 31.1562C82.1484 30.4297 81.7305 29.5195 81.7305 28.4258C81.7305 27.0508 82.2383 26.0117 83.2539 25.3086C84.2695 24.6055 85.7461 24.2539 87.6836 24.2539H88.9023V23.5859C88.9023 22.4219 88.3984 21.8398 87.3906 21.8398C86.4531 21.8398 85.9844 22.3008 85.9844 23.2227H82.0352C82.0352 21.9961 82.5547 21 83.5938 20.2344C84.6406 19.4688 85.9727 19.0859 87.5898 19.0859C89.207 19.0859 90.4844 19.4805 91.4219 20.2695C92.3594 21.0586 92.8398 22.1406 92.8633 23.5156V29.1289C92.8789 30.293 93.0586 31.1836 93.4023 31.8008V32H89.4531ZM86.9805 29.4219C87.4727 29.4219 87.8789 29.3164 88.1992 29.1055C88.5273 28.8945 88.7617 28.6562 88.9023 28.3906V26.3633H87.7539C86.3789 26.3633 85.6914 26.9805 85.6914 28.2148C85.6914 28.5742 85.8125 28.8672 86.0547 29.0938C86.2969 29.3125 86.6055 29.4219 86.9805 29.4219ZM98.6875 19.3203L98.8164 20.8086C99.6914 19.6602 100.898 19.0859 102.438 19.0859C103.758 19.0859 104.742 19.4805 105.391 20.2695C106.047 21.0586 106.387 22.2461 106.41 23.832V32H102.449V23.9961C102.449 23.3555 102.32 22.8867 102.062 22.5898C101.805 22.2852 101.336 22.1328 100.656 22.1328C99.8828 22.1328 99.3086 22.4375 98.9336 23.0469V32H94.9844V19.3203H98.6875ZM108.145 25.5664C108.145 24.2852 108.355 23.1523 108.777 22.168C109.199 21.1836 109.805 20.4258 110.594 19.8945C111.383 19.3555 112.301 19.0859 113.348 19.0859C114.668 19.0859 115.699 19.5312 116.441 20.4219L116.582 19.3203H120.168V31.5195C120.168 32.6367 119.906 33.6055 119.383 34.4258C118.867 35.2539 118.117 35.8867 117.133 36.3242C116.148 36.7695 115.008 36.9922 113.711 36.9922C112.781 36.9922 111.879 36.8164 111.004 36.4648C110.137 36.1133 109.473 35.6562 109.012 35.0938L110.664 32.7734C111.398 33.6406 112.367 34.0742 113.57 34.0742C115.32 34.0742 116.195 33.1758 116.195 31.3789V30.9805C115.438 31.8164 114.48 32.2344 113.324 32.2344C111.777 32.2344 110.527 31.6445 109.574 30.4648C108.621 29.2773 108.145 27.6914 108.145 25.707V25.5664ZM112.105 25.8125C112.105 26.8516 112.301 27.6758 112.691 28.2852C113.082 28.8867 113.629 29.1875 114.332 29.1875C115.184 29.1875 115.805 28.9023 116.195 28.332V23C115.812 22.4219 115.199 22.1328 114.355 22.1328C113.652 22.1328 113.102 22.4492 112.703 23.082C112.305 23.707 112.105 24.6172 112.105 25.8125ZM128.395 25.6484L126.707 27.5V32H122.594V14.9375H126.707V22.4609L128.137 20.293L131.816 14.9375H136.902L131.137 22.4844L136.902 32H132.027L128.395 25.6484ZM141.93 32H137.969V19.3203H141.93V32ZM137.734 16.0508C137.734 15.4883 137.938 15.0273 138.344 14.668C138.75 14.3086 139.277 14.1289 139.926 14.1289C140.574 14.1289 141.102 14.3086 141.508 14.668C141.914 15.0273 142.117 15.4883 142.117 16.0508C142.117 16.6133 141.914 17.0742 141.508 17.4336C141.102 17.793 140.574 17.9727 139.926 17.9727C139.277 17.9727 138.75 17.793 138.344 17.4336C137.938 17.0742 137.734 16.6133 137.734 16.0508ZM148.973 16.168V19.3203H151.059V22.0625H148.973V27.8633C148.973 28.3398 149.059 28.6719 149.23 28.8594C149.402 29.0469 149.742 29.1406 150.25 29.1406C150.641 29.1406 150.969 29.1172 151.234 29.0703V31.8945C150.523 32.1211 149.781 32.2344 149.008 32.2344C147.648 32.2344 146.645 31.9141 145.996 31.2734C145.348 30.6328 145.023 29.6602 145.023 28.3555V22.0625H143.406V19.3203H145.023V16.168H148.973ZM159.766 32C159.625 31.7422 159.5 31.3633 159.391 30.8633C158.664 31.7773 157.648 32.2344 156.344 32.2344C155.148 32.2344 154.133 31.875 153.297 31.1562C152.461 30.4297 152.043 29.5195 152.043 28.4258C152.043 27.0508 152.551 26.0117 153.566 25.3086C154.582 24.6055 156.059 24.2539 157.996 24.2539H159.215V23.5859C159.215 22.4219 158.711 21.8398 157.703 21.8398C156.766 21.8398 156.297 22.3008 156.297 23.2227H152.348C152.348 21.9961 152.867 21 153.906 20.2344C154.953 19.4688 156.285 19.0859 157.902 19.0859C159.52 19.0859 160.797 19.4805 161.734 20.2695C162.672 21.0586 163.152 22.1406 163.176 23.5156V29.1289C163.191 30.293 163.371 31.1836 163.715 31.8008V32H159.766ZM157.293 29.4219C157.785 29.4219 158.191 29.3164 158.512 29.1055C158.84 28.8945 159.074 28.6562 159.215 28.3906V26.3633H158.066C156.691 26.3633 156.004 26.9805 156.004 28.2148C156.004 28.5742 156.125 28.8672 156.367 29.0938C156.609 29.3125 156.918 29.4219 157.293 29.4219Z" fill="white"/>
</svg>
